<mxfile host="app.diagrams.net" agent="Mozilla/5.0 (Windows NT 10.0; Win64; x64; rv:136.0) Gecko/20100101 Firefox/136.0" version="26.2.5">
  <diagram name="Страница — 1" id="99NEOgCNLpRDA_7hxaWP">
    <mxGraphModel dx="2068" dy="825" grid="1" gridSize="10" guides="1" tooltips="1" connect="1" arrows="1" fold="1" page="1" pageScale="1" pageWidth="827" pageHeight="1169" math="0" shadow="0">
      <root>
        <mxCell id="0" />
        <mxCell id="1" parent="0" />
        <mxCell id="_xGuzI4it3Ap0r0oz-_N-5" style="edgeStyle=orthogonalEdgeStyle;rounded=0;orthogonalLoop=1;jettySize=auto;html=1;exitX=1;exitY=0.5;exitDx=0;exitDy=0;entryX=0;entryY=0.5;entryDx=0;entryDy=0;" edge="1" parent="1" source="_xGuzI4it3Ap0r0oz-_N-2" target="_xGuzI4it3Ap0r0oz-_N-4">
          <mxGeometry relative="1" as="geometry" />
        </mxCell>
        <mxCell id="_xGuzI4it3Ap0r0oz-_N-11" style="edgeStyle=orthogonalEdgeStyle;rounded=0;orthogonalLoop=1;jettySize=auto;html=1;exitX=1;exitY=0.5;exitDx=0;exitDy=0;entryX=0.5;entryY=0;entryDx=0;entryDy=0;" edge="1" parent="1" source="_xGuzI4it3Ap0r0oz-_N-2" target="_xGuzI4it3Ap0r0oz-_N-8">
          <mxGeometry relative="1" as="geometry">
            <Array as="points">
              <mxPoint x="270" y="365" />
              <mxPoint x="270" y="40" />
              <mxPoint x="520" y="40" />
            </Array>
          </mxGeometry>
        </mxCell>
        <mxCell id="_xGuzI4it3Ap0r0oz-_N-12" style="edgeStyle=orthogonalEdgeStyle;rounded=0;orthogonalLoop=1;jettySize=auto;html=1;exitX=1;exitY=0.5;exitDx=0;exitDy=0;entryX=0.5;entryY=0;entryDx=0;entryDy=0;" edge="1" parent="1" source="_xGuzI4it3Ap0r0oz-_N-2" target="_xGuzI4it3Ap0r0oz-_N-9">
          <mxGeometry relative="1" as="geometry" />
        </mxCell>
        <mxCell id="_xGuzI4it3Ap0r0oz-_N-2" value="&lt;div&gt;Люди, которым&amp;nbsp;&lt;/div&gt;&lt;div&gt;нужна моральная или психологическая&amp;nbsp;&amp;nbsp;&lt;/div&gt;&lt;div&gt;поддержка&lt;/div&gt;" style="rhombus;whiteSpace=wrap;html=1;" vertex="1" parent="1">
          <mxGeometry x="30" y="280" width="190" height="170" as="geometry" />
        </mxCell>
        <mxCell id="_xGuzI4it3Ap0r0oz-_N-6" style="edgeStyle=orthogonalEdgeStyle;rounded=0;orthogonalLoop=1;jettySize=auto;html=1;exitX=1;exitY=0.5;exitDx=0;exitDy=0;entryX=0;entryY=0.5;entryDx=0;entryDy=0;" edge="1" parent="1" source="_xGuzI4it3Ap0r0oz-_N-3" target="_xGuzI4it3Ap0r0oz-_N-4">
          <mxGeometry relative="1" as="geometry" />
        </mxCell>
        <mxCell id="_xGuzI4it3Ap0r0oz-_N-3" value="Люди с социальной тревогой" style="rhombus;whiteSpace=wrap;html=1;" vertex="1" parent="1">
          <mxGeometry x="45" y="480" width="160" height="150" as="geometry" />
        </mxCell>
        <mxCell id="_xGuzI4it3Ap0r0oz-_N-14" style="edgeStyle=orthogonalEdgeStyle;rounded=0;orthogonalLoop=1;jettySize=auto;html=1;exitX=0.5;exitY=0;exitDx=0;exitDy=0;entryX=0.5;entryY=1;entryDx=0;entryDy=0;" edge="1" parent="1" source="_xGuzI4it3Ap0r0oz-_N-4" target="_xGuzI4it3Ap0r0oz-_N-9">
          <mxGeometry relative="1" as="geometry" />
        </mxCell>
        <mxCell id="_xGuzI4it3Ap0r0oz-_N-15" style="edgeStyle=orthogonalEdgeStyle;rounded=0;orthogonalLoop=1;jettySize=auto;html=1;exitX=0.5;exitY=0;exitDx=0;exitDy=0;entryX=0.5;entryY=1;entryDx=0;entryDy=0;" edge="1" parent="1" source="_xGuzI4it3Ap0r0oz-_N-4" target="_xGuzI4it3Ap0r0oz-_N-8">
          <mxGeometry relative="1" as="geometry" />
        </mxCell>
        <mxCell id="_xGuzI4it3Ap0r0oz-_N-24" style="edgeStyle=orthogonalEdgeStyle;rounded=0;orthogonalLoop=1;jettySize=auto;html=1;exitX=1;exitY=0.5;exitDx=0;exitDy=0;entryX=0;entryY=0.5;entryDx=0;entryDy=0;" edge="1" parent="1" source="_xGuzI4it3Ap0r0oz-_N-4" target="_xGuzI4it3Ap0r0oz-_N-18">
          <mxGeometry relative="1" as="geometry" />
        </mxCell>
        <mxCell id="_xGuzI4it3Ap0r0oz-_N-4" value="Чат бот психолог" style="whiteSpace=wrap;html=1;aspect=fixed;" vertex="1" parent="1">
          <mxGeometry x="310" y="305" width="120" height="120" as="geometry" />
        </mxCell>
        <mxCell id="_xGuzI4it3Ap0r0oz-_N-8" value="Службы психологической помощи" style="whiteSpace=wrap;html=1;aspect=fixed;" vertex="1" parent="1">
          <mxGeometry x="470" y="60" width="100" height="100" as="geometry" />
        </mxCell>
        <mxCell id="_xGuzI4it3Ap0r0oz-_N-9" value="Экстренные номера" style="whiteSpace=wrap;html=1;aspect=fixed;" vertex="1" parent="1">
          <mxGeometry x="320" y="60" width="100" height="100" as="geometry" />
        </mxCell>
        <mxCell id="_xGuzI4it3Ap0r0oz-_N-16" value="Уменьшает нагрузку на оба объекта, может помочь решить небольшие проблемы без вмешательств специалистов" style="text;html=1;align=center;verticalAlign=middle;whiteSpace=wrap;rounded=0;" vertex="1" parent="1">
          <mxGeometry x="390" y="260" width="240" height="30" as="geometry" />
        </mxCell>
        <mxCell id="_xGuzI4it3Ap0r0oz-_N-21" style="edgeStyle=orthogonalEdgeStyle;rounded=0;orthogonalLoop=1;jettySize=auto;html=1;exitX=0.5;exitY=0;exitDx=0;exitDy=0;entryX=1;entryY=0.5;entryDx=0;entryDy=0;" edge="1" parent="1" source="_xGuzI4it3Ap0r0oz-_N-18" target="_xGuzI4it3Ap0r0oz-_N-8">
          <mxGeometry relative="1" as="geometry" />
        </mxCell>
        <mxCell id="_xGuzI4it3Ap0r0oz-_N-22" style="edgeStyle=orthogonalEdgeStyle;rounded=0;orthogonalLoop=1;jettySize=auto;html=1;exitX=0.5;exitY=0;exitDx=0;exitDy=0;entryX=0.5;entryY=1;entryDx=0;entryDy=0;" edge="1" parent="1" source="_xGuzI4it3Ap0r0oz-_N-18" target="_xGuzI4it3Ap0r0oz-_N-9">
          <mxGeometry relative="1" as="geometry">
            <Array as="points">
              <mxPoint x="700" y="190" />
              <mxPoint x="370" y="190" />
            </Array>
          </mxGeometry>
        </mxCell>
        <mxCell id="_xGuzI4it3Ap0r0oz-_N-18" value="Профессиональные психологи" style="rhombus;whiteSpace=wrap;html=1;" vertex="1" parent="1">
          <mxGeometry x="620" y="300" width="160" height="150" as="geometry" />
        </mxCell>
        <mxCell id="_xGuzI4it3Ap0r0oz-_N-23" value="Оказывает помощь в любой момент времени" style="text;html=1;align=center;verticalAlign=middle;whiteSpace=wrap;rounded=0;" vertex="1" parent="1">
          <mxGeometry x="300" y="450" width="130" height="30" as="geometry" />
        </mxCell>
        <mxCell id="_xGuzI4it3Ap0r0oz-_N-26" value="&lt;div&gt;Позволяет собрать первичный анамнез&lt;/div&gt;&lt;div&gt;Снижает вероятность ненужных обращений &lt;br&gt;&lt;/div&gt;" style="text;html=1;align=center;verticalAlign=middle;whiteSpace=wrap;rounded=0;" vertex="1" parent="1">
          <mxGeometry x="480" y="420" width="130" height="30" as="geometry" />
        </mxCell>
      </root>
    </mxGraphModel>
  </diagram>
</mxfile>
